<svg width="1040" height="2258" viewBox="0 0 1040 2258" fill="none" xmlns="http://www.w3.org/2000/svg">
<g filter="url(#filter0_d_3_93)">
<mask id="mask0_3_93" style="mask-type:alpha" maskUnits="userSpaceOnUse" x="226" y="1571" width="588" height="330">
<rect width="586.829" height="329.906" transform="matrix(-1 0 0 1 813.304 1571.09)" fill="#C4C4C4"/>
</mask>
<g mask="url(#mask0_3_93)">
<mask id="path-2-inside-1_3_93" fill="white">
<path fill-rule="evenodd" clip-rule="evenodd" d="M353.177 248.037C353.177 313.891 389.121 371.092 441.892 399.936L503.218 2138.12C503.218 2147.61 510.682 2155.3 519.889 2155.3C529.097 2155.3 536.561 2147.61 536.561 2138.12L597.887 399.936C650.658 371.092 686.602 313.891 686.602 248.037C686.602 153.14 611.962 76.2111 519.89 76.2111C427.817 76.2111 353.177 153.14 353.177 248.037Z"/>
</mask>
<path fill-rule="evenodd" clip-rule="evenodd" d="M353.177 248.037C353.177 313.891 389.121 371.092 441.892 399.936L503.218 2138.12C503.218 2147.61 510.682 2155.3 519.889 2155.3C529.097 2155.3 536.561 2147.61 536.561 2138.12L597.887 399.936C650.658 371.092 686.602 313.891 686.602 248.037C686.602 153.14 611.962 76.2111 519.89 76.2111C427.817 76.2111 353.177 153.14 353.177 248.037Z" fill="#030713"/>
<path d="M441.892 399.936L449.898 385.289L458.239 389.848L458.574 399.347L441.892 399.936ZM503.218 2138.12L519.9 2137.53L519.91 2137.82V2138.12L503.218 2138.12ZM536.561 2138.12L519.869 2138.12V2137.82L519.879 2137.53L536.561 2138.12ZM597.887 399.936L581.205 399.347L581.54 389.848L589.881 385.289L597.887 399.936ZM433.887 414.583C375.813 382.84 336.485 320.053 336.485 248.037H369.869C369.869 307.728 402.43 359.343 449.898 385.289L433.887 414.583ZM486.536 2138.71L425.211 400.525L458.574 399.347L519.9 2137.53L486.536 2138.71ZM519.91 2138.12C519.91 2138.29 519.941 2138.4 519.971 2138.47C520.004 2138.55 520.047 2138.61 520.081 2138.64C520.115 2138.68 520.119 2138.67 520.07 2138.65C520.009 2138.62 519.935 2138.61 519.889 2138.61V2171.99C500.992 2171.99 486.526 2156.35 486.526 2138.12L519.91 2138.12ZM519.889 2138.61C519.844 2138.61 519.77 2138.62 519.708 2138.65C519.66 2138.67 519.664 2138.68 519.698 2138.64C519.732 2138.61 519.775 2138.55 519.808 2138.47C519.838 2138.4 519.869 2138.29 519.869 2138.12L553.253 2138.12C553.253 2156.35 538.787 2171.99 519.889 2171.99V2138.61ZM614.568 400.525L553.242 2138.71L519.879 2137.53L581.205 399.347L614.568 400.525ZM703.294 248.037C703.294 320.053 663.966 382.84 605.892 414.583L589.881 385.289C637.349 359.343 669.91 307.728 669.91 248.037H703.294ZM519.89 59.5189C621.653 59.5189 703.294 144.4 703.294 248.037H669.91C669.91 161.88 602.272 92.9032 519.89 92.9032V59.5189ZM336.485 248.037C336.485 144.4 418.126 59.5189 519.89 59.5189V92.9032C437.507 92.9032 369.869 161.88 369.869 248.037H336.485Z" fill="#246C17" mask="url(#path-2-inside-1_3_93)"/>
</g>
<mask id="mask1_3_93" style="mask-type:alpha" maskUnits="userSpaceOnUse" x="226" y="747" width="588" height="431">
<rect width="586.829" height="430.467" transform="matrix(-1 0 0 1 813.304 747.533)" fill="#C4C4C4"/>
</mask>
<g mask="url(#mask1_3_93)">
<mask id="path-5-inside-2_3_93" fill="white">
<path fill-rule="evenodd" clip-rule="evenodd" d="M353.177 279.782C353.177 344.735 389.121 401.154 441.892 429.604L503.218 2144.01C503.218 2153.37 510.682 2160.95 519.889 2160.95C529.097 2160.95 536.561 2153.37 536.561 2144.01L597.887 429.604C650.658 401.154 686.602 344.735 686.602 279.782C686.602 186.184 611.962 110.307 519.89 110.307C427.817 110.307 353.177 186.184 353.177 279.782Z"/>
</mask>
<path fill-rule="evenodd" clip-rule="evenodd" d="M353.177 279.782C353.177 344.735 389.121 401.154 441.892 429.604L503.218 2144.01C503.218 2153.37 510.682 2160.95 519.889 2160.95C529.097 2160.95 536.561 2153.37 536.561 2144.01L597.887 429.604C650.658 401.154 686.602 344.735 686.602 279.782C686.602 186.184 611.962 110.307 519.89 110.307C427.817 110.307 353.177 186.184 353.177 279.782Z" fill="#030713"/>
<path d="M441.892 429.604L449.814 414.911L458.232 419.449L458.574 429.007L441.892 429.604ZM503.218 2144.01L519.9 2143.41L519.91 2143.71V2144.01L503.218 2144.01ZM536.561 2144.01L519.869 2144.01V2143.71L519.879 2143.41L536.561 2144.01ZM597.887 429.604L581.205 429.007L581.547 419.449L589.965 414.911L597.887 429.604ZM433.971 444.297C375.924 413.002 336.485 351.015 336.485 279.782H369.869C369.869 338.456 402.319 389.306 449.814 414.911L433.971 444.297ZM486.537 2144.6L425.211 430.2L458.574 429.007L519.9 2143.41L486.537 2144.6ZM519.91 2144.01C519.91 2144.07 519.916 2144.11 519.921 2144.13C519.926 2144.15 519.932 2144.17 519.94 2144.19C519.955 2144.23 519.978 2144.26 520 2144.29C520.023 2144.31 520.027 2144.3 519.993 2144.29C519.976 2144.28 519.954 2144.27 519.929 2144.27C519.903 2144.26 519.888 2144.26 519.889 2144.26V2177.65C501.206 2177.65 486.526 2162.33 486.526 2144.01L519.91 2144.01ZM519.889 2144.26C519.891 2144.26 519.876 2144.26 519.85 2144.27C519.825 2144.27 519.803 2144.28 519.785 2144.29C519.752 2144.3 519.756 2144.31 519.778 2144.28C519.801 2144.26 519.824 2144.23 519.839 2144.19C519.847 2144.17 519.853 2144.15 519.858 2144.13C519.863 2144.1 519.869 2144.07 519.869 2144.01L553.253 2144.01C553.253 2162.33 538.572 2177.65 519.889 2177.65V2144.26ZM614.568 430.2L553.242 2144.6L519.879 2143.41L581.205 429.007L614.568 430.2ZM703.294 279.782C703.294 351.015 663.855 413.002 605.808 444.297L589.965 414.911C637.46 389.306 669.91 338.456 669.91 279.782H703.294ZM519.89 93.6151C621.439 93.6151 703.294 177.225 703.294 279.782H669.91C669.91 195.143 602.486 126.999 519.89 126.999V93.6151ZM336.485 279.782C336.485 177.225 418.34 93.6151 519.89 93.6151V126.999C437.293 126.999 369.869 195.143 369.869 279.782H336.485Z" fill="#246C17" mask="url(#path-5-inside-2_3_93)"/>
</g>
<mask id="path-7-inside-3_3_93" fill="white">
<path fill-rule="evenodd" clip-rule="evenodd" d="M920 702.963C920 702.963 869.17 566.328 777.695 522.628C724.263 497.101 687.132 517.696 665.489 539.241C547.348 525.819 120 495.526 120 759.672C120 927.093 300.481 966.783 464.283 1002.8C600.371 1032.73 724.946 1060.13 724.946 1156.14C724.946 1255.31 598.933 1286.75 465.045 1320.15C313.307 1358.01 151.454 1398.39 151.454 1542.75C151.454 1704.98 325.558 1757.13 465.887 1799.15C560.614 1827.52 639.95 1851.28 639.95 1901.19C639.95 2025.01 234.811 2027.9 234.811 2027.9C234.811 2027.9 795.128 2132.18 795.128 1901.19C795.128 1773.9 657.839 1730.2 534.558 1690.95C434.102 1658.97 342.946 1629.96 342.946 1561.09C342.946 1500.6 426.506 1481.08 527.714 1457.44C683.115 1421.14 880.123 1375.13 880.123 1156.14C880.123 937.58 672.404 894.979 508.056 861.273C400.484 839.211 311.492 820.96 311.492 759.672C311.492 642.669 530.486 644.436 637.689 652.31C644.956 671.927 660.413 691.3 690.294 705.576C781.768 749.276 920 702.963 920 702.963ZM741.62 600.139C725.579 593.159 716.15 579.288 720.558 569.157C724.967 559.025 741.544 556.471 757.585 563.451C773.626 570.431 783.056 584.303 778.647 594.434C774.239 604.565 757.661 607.12 741.62 600.139Z"/>
</mask>
<path fill-rule="evenodd" clip-rule="evenodd" d="M920 702.963C920 702.963 869.17 566.328 777.695 522.628C724.263 497.101 687.132 517.696 665.489 539.241C547.348 525.819 120 495.526 120 759.672C120 927.093 300.481 966.783 464.283 1002.8C600.371 1032.73 724.946 1060.13 724.946 1156.14C724.946 1255.31 598.933 1286.75 465.045 1320.15C313.307 1358.01 151.454 1398.39 151.454 1542.75C151.454 1704.98 325.558 1757.13 465.887 1799.15C560.614 1827.52 639.95 1851.28 639.95 1901.19C639.95 2025.01 234.811 2027.9 234.811 2027.9C234.811 2027.9 795.128 2132.18 795.128 1901.19C795.128 1773.9 657.839 1730.2 534.558 1690.95C434.102 1658.97 342.946 1629.96 342.946 1561.09C342.946 1500.6 426.506 1481.08 527.714 1457.44C683.115 1421.14 880.123 1375.13 880.123 1156.14C880.123 937.58 672.404 894.979 508.056 861.273C400.484 839.211 311.492 820.96 311.492 759.672C311.492 642.669 530.486 644.436 637.689 652.31C644.956 671.927 660.413 691.3 690.294 705.576C781.768 749.276 920 702.963 920 702.963ZM741.62 600.139C725.579 593.159 716.15 579.288 720.558 569.157C724.967 559.025 741.544 556.471 757.585 563.451C773.626 570.431 783.056 584.303 778.647 594.434C774.239 604.565 757.661 607.12 741.62 600.139Z" fill="#030713"/>
<path d="M777.695 522.628L770.5 537.689L777.695 522.628ZM920 702.963L935.645 697.143L941.659 713.31L925.303 718.79L920 702.963ZM665.489 539.241L677.265 551.071L671.578 556.732L663.604 555.826L665.489 539.241ZM464.283 1002.8L467.868 986.502L464.283 1002.8ZM465.045 1320.15L469.086 1336.35L465.045 1320.15ZM465.887 1799.15L470.675 1783.16L465.887 1799.15ZM234.811 2027.9L231.756 2044.31L234.692 2011.21L234.811 2027.9ZM534.558 1690.95L539.621 1675.05H539.621L534.558 1690.95ZM527.714 1457.44L531.511 1473.7H531.511L527.714 1457.44ZM508.056 861.273L511.41 844.922L508.056 861.273ZM637.689 652.31L638.911 635.663L649.613 636.449L653.341 646.511L637.689 652.31ZM690.294 705.576L697.49 690.514L690.294 705.576ZM720.558 569.157L705.252 562.496V562.496L720.558 569.157ZM741.62 600.139L734.96 615.445L734.96 615.445L741.62 600.139ZM757.585 563.451L764.245 548.145L757.585 563.451ZM784.891 507.566C835.104 531.554 872.782 580.086 897.405 620.497C909.892 640.992 919.403 660.037 925.798 673.966C929 680.941 931.434 686.659 933.079 690.668C933.902 692.674 934.529 694.253 934.957 695.351C935.171 695.899 935.336 696.328 935.451 696.629C935.508 696.779 935.553 696.898 935.585 696.984C935.601 697.027 935.614 697.062 935.624 697.088C935.629 697.102 935.633 697.113 935.637 697.122C935.638 697.126 935.64 697.132 935.641 697.134C935.643 697.139 935.645 697.143 920 702.963C904.355 708.783 904.357 708.786 904.358 708.789C904.358 708.789 904.358 708.791 904.359 708.792C904.359 708.792 904.358 708.791 904.357 708.788C904.355 708.781 904.349 708.766 904.341 708.744C904.323 708.698 904.294 708.62 904.252 708.511C904.169 708.292 904.037 707.948 903.856 707.485C903.495 706.56 902.941 705.161 902.195 703.345C900.704 699.711 898.451 694.413 895.459 687.896C889.465 674.84 880.551 656.995 868.896 637.868C845.235 599.037 811.762 557.401 770.5 537.689L784.891 507.566ZM653.712 527.411C665.948 515.231 683.187 502.679 705.636 497.086C728.411 491.411 755.012 493.292 784.891 507.566L770.5 537.689C746.947 526.437 728.266 525.852 713.707 529.48C698.821 533.188 686.673 541.706 677.265 551.071L653.712 527.411ZM103.308 759.672C103.308 688.37 132.471 636.066 178.085 598.957C223.007 562.411 283.155 541.121 345.24 528.987C469.453 504.709 607.922 515.901 667.373 522.655L663.604 555.826C604.914 549.159 470.639 538.493 351.643 561.751C292.123 573.384 238.05 593.209 199.153 624.854C160.947 655.937 136.692 698.902 136.692 759.672H103.308ZM460.698 1019.11C379.451 1001.24 290.861 981.89 222.796 945.207C188.484 926.714 158.492 903.381 137.085 872.799C115.529 842.006 103.308 804.751 103.308 759.672H136.692C136.692 798.304 147.031 828.793 164.434 853.654C181.985 878.727 207.351 898.959 238.635 915.819C301.761 949.841 385.312 968.347 467.868 986.502L460.698 1019.11ZM708.254 1156.14C708.254 1117.66 684.251 1091.24 638.558 1069.8C592.458 1048.18 529.373 1034.21 460.698 1019.11L467.868 986.502C535.28 1001.33 602.527 1016.02 652.737 1039.58C703.353 1063.32 741.638 1098.6 741.638 1156.14H708.254ZM461.004 1303.96C528.56 1287.1 591.461 1271.32 637.662 1247.92C683.429 1224.74 708.254 1196.55 708.254 1156.14H741.638C741.638 1214.89 703.457 1252.02 652.746 1277.7C602.467 1303.16 535.418 1319.8 469.086 1336.35L461.004 1303.96ZM134.762 1542.75C134.762 1462.46 180.588 1411.58 243.268 1376.91C305.005 1342.76 385.76 1322.73 461.004 1303.96L469.086 1336.35C392.592 1355.43 316.552 1374.52 259.427 1406.12C203.247 1437.2 168.146 1478.69 168.146 1542.75H134.762ZM461.098 1815.14C391.466 1794.29 310.5 1770.16 247.134 1730.14C182.936 1689.6 134.762 1631.36 134.762 1542.75H168.146C168.146 1616.37 207.025 1665.33 264.961 1701.92C323.729 1739.03 399.979 1761.99 470.675 1783.16L461.098 1815.14ZM623.258 1901.19C623.258 1886.74 612.096 1872.47 581.019 1857.05C550.903 1842.09 508.966 1829.48 461.098 1815.14L470.675 1783.16C517.534 1797.2 562.629 1810.64 595.863 1827.14C628.136 1843.16 656.643 1865.73 656.643 1901.19H623.258ZM234.811 2027.9C234.692 2011.21 234.691 2011.21 234.691 2011.21C234.694 2011.21 234.696 2011.21 234.7 2011.21C234.709 2011.21 234.724 2011.21 234.745 2011.21C234.788 2011.21 234.854 2011.2 234.945 2011.2C235.126 2011.2 235.403 2011.2 235.772 2011.19C236.51 2011.19 237.618 2011.17 239.072 2011.15C241.979 2011.1 246.266 2011.01 251.736 2010.85C262.678 2010.53 278.34 2009.94 297.146 2008.85C334.808 2006.66 384.849 2002.47 434.744 1994.49C484.908 1986.47 533.734 1974.79 569.602 1958.09C606.616 1940.86 623.258 1921.58 623.258 1901.19H656.643C656.643 1942.71 622.642 1970.22 583.693 1988.36C543.597 2007.02 491.138 2019.28 440.017 2027.46C388.627 2035.68 337.383 2039.95 299.081 2042.18C279.905 2043.29 263.916 2043.89 252.702 2044.22C247.094 2044.38 242.677 2044.47 239.649 2044.52C238.135 2044.55 236.969 2044.57 236.174 2044.58C235.776 2044.58 235.472 2044.58 235.263 2044.59C235.159 2044.59 235.079 2044.59 235.023 2044.59C234.995 2044.59 234.974 2044.59 234.958 2044.59C234.95 2044.59 234.943 2044.59 234.939 2044.59C234.933 2044.59 234.929 2044.59 234.811 2027.9ZM811.82 1901.19C811.82 1933.73 801.852 1961.05 784.113 1983.34C766.584 2005.38 742.127 2021.69 714.201 2033.76C658.657 2057.77 586.003 2066.44 515.303 2067.85C444.223 2069.28 373.36 2063.38 320.414 2057.16C293.903 2054.05 271.801 2050.85 256.303 2048.42C248.552 2047.2 242.449 2046.18 238.268 2045.46C236.177 2045.1 234.566 2044.82 233.469 2044.62C232.921 2044.52 232.501 2044.44 232.214 2044.39C232.071 2044.37 231.961 2044.35 231.884 2044.33C231.846 2044.32 231.816 2044.32 231.795 2044.32C231.784 2044.31 231.774 2044.31 231.769 2044.31C231.762 2044.31 231.756 2044.31 234.811 2027.9C237.865 2011.49 237.864 2011.49 237.865 2011.49C237.868 2011.49 237.871 2011.49 237.878 2011.49C237.89 2011.49 237.911 2011.5 237.941 2011.5C238 2011.51 238.093 2011.53 238.219 2011.55C238.471 2011.6 238.855 2011.67 239.366 2011.76C240.39 2011.94 241.926 2012.22 243.939 2012.56C247.965 2013.26 253.9 2014.25 261.47 2015.44C276.615 2017.81 298.287 2020.95 324.306 2024C376.419 2030.12 445.636 2035.86 514.635 2034.48C584.014 2033.09 651.44 2024.52 700.955 2003.11C725.559 1992.48 744.877 1979.04 757.99 1962.56C770.893 1946.34 778.435 1926.39 778.435 1901.19H811.82ZM539.621 1675.05C600.701 1694.49 668.121 1715.84 720.054 1748.99C772.801 1782.65 811.82 1830.01 811.82 1901.19H778.435C778.435 1845.08 748.81 1806.94 702.093 1777.13C654.561 1746.79 591.696 1726.66 529.494 1706.86L539.621 1675.05ZM359.638 1561.09C359.638 1586.41 375.785 1606.49 409.258 1625.3C442.793 1644.14 488.842 1658.88 539.621 1675.05L529.494 1706.86C479.818 1691.05 430.061 1675.28 392.904 1654.41C355.685 1633.49 326.254 1604.63 326.254 1561.09H359.638ZM531.511 1473.7C480.293 1485.66 436.007 1496.08 404.341 1510.62C372.684 1525.15 359.638 1540.88 359.638 1561.09H326.254C326.254 1520.81 354.988 1496.54 390.414 1480.28C425.829 1464.02 473.927 1452.86 523.917 1441.19L531.511 1473.7ZM896.815 1156.14C896.815 1272.01 844.05 1343.3 771.113 1389.41C699.619 1434.6 608.58 1455.69 531.511 1473.7L523.917 1441.19C602.249 1422.89 687.415 1402.82 753.275 1361.19C817.692 1320.47 863.431 1259.25 863.431 1156.14H896.815ZM511.41 844.922C592.935 861.642 688.837 881.143 764.117 924.96C802.083 947.058 835.439 975.663 859.253 1013.75C883.13 1051.94 896.815 1098.72 896.815 1156.14H863.431C863.431 1104.28 851.152 1063.77 830.946 1031.45C810.676 999.029 781.83 973.897 747.323 953.812C677.658 913.264 587.525 894.611 504.703 877.625L511.41 844.922ZM328.184 759.672C328.184 779.705 341.778 795.472 375.894 809.791C409.74 823.997 457.016 833.766 511.41 844.922L504.703 877.625C451.524 866.719 400.518 856.331 362.974 840.574C325.701 824.93 294.8 800.928 294.8 759.672H328.184ZM636.466 668.957C583.205 665.045 503.464 662.786 437.563 675.549C404.526 681.948 376.557 691.838 357.208 705.924C338.541 719.513 328.184 736.653 328.184 759.672H294.8C294.8 724.19 311.817 697.674 337.561 678.934C362.623 660.689 396.103 649.575 431.215 642.774C501.612 629.14 584.97 631.701 638.911 635.663L636.466 668.957ZM683.099 720.637C649.586 704.627 630.918 682.082 622.036 658.109L653.341 646.511C658.995 661.772 671.24 677.974 697.49 690.514L683.099 720.637ZM920 702.963C925.303 718.79 925.299 718.792 925.294 718.793C925.291 718.794 925.286 718.796 925.282 718.798C925.272 718.801 925.261 718.804 925.248 718.809C925.221 718.818 925.185 718.83 925.142 718.844C925.055 718.873 924.934 718.912 924.781 718.962C924.475 719.062 924.038 719.204 923.477 719.382C922.354 719.738 920.731 720.243 918.654 720.863C914.501 722.102 908.524 723.802 901.086 725.694C886.232 729.471 865.44 734.04 841.65 737.203C794.741 743.441 733.312 744.626 683.099 720.637L697.49 690.514C738.751 710.226 792.174 710.104 837.25 704.111C859.452 701.158 878.935 696.88 892.858 693.339C899.809 691.572 905.345 689.995 909.109 688.872C910.991 688.311 912.427 687.864 913.374 687.563C913.847 687.413 914.198 687.299 914.42 687.227C914.532 687.19 914.611 687.164 914.657 687.149C914.68 687.141 914.695 687.136 914.702 687.134C914.705 687.133 914.707 687.132 914.706 687.133C914.705 687.133 914.703 687.134 914.703 687.134C914.7 687.135 914.697 687.136 920 702.963ZM735.864 575.817C736.751 573.779 735.305 573.62 737.225 576.445C739.004 579.062 742.7 582.405 748.281 584.834L734.96 615.445C724.5 610.894 715.461 603.811 709.616 595.214C703.914 586.825 699.957 574.666 705.252 562.496L735.864 575.817ZM750.925 578.757C745.344 576.328 740.378 575.903 737.251 576.385C733.875 576.905 734.977 577.855 735.864 575.817L705.252 562.496C710.548 550.327 722.142 544.934 732.167 543.39C742.442 541.807 753.785 543.594 764.245 548.145L750.925 578.757ZM763.342 587.774C762.455 589.812 763.901 589.97 761.98 587.145C760.202 584.529 756.506 581.186 750.925 578.757L764.245 548.145C774.705 552.697 783.745 559.78 789.589 568.377C795.292 576.765 799.249 588.925 793.953 601.094L763.342 587.774ZM748.281 584.834C753.862 587.262 758.827 587.688 761.954 587.206C765.33 586.686 764.229 585.736 763.342 587.774L793.953 601.094C788.658 613.264 777.063 618.656 767.038 620.201C756.764 621.784 745.42 619.997 734.96 615.445L748.281 584.834Z" fill="#246C17" mask="url(#path-7-inside-3_3_93)"/>
<mask id="mask2_3_93" style="mask-type:alpha" maskUnits="userSpaceOnUse" x="263" y="116" width="513" height="641">
<rect width="512.212" height="641" transform="matrix(-1 0 0 1 775.995 116)" fill="#C4C4C4"/>
</mask>
<g mask="url(#mask2_3_93)">
<mask id="path-10-inside-4_3_93" fill="white">
<path fill-rule="evenodd" clip-rule="evenodd" d="M353.177 289.975C353.177 354.828 389.121 411.159 441.892 439.564L503.218 2151.31C503.218 2160.65 510.682 2168.23 519.889 2168.23C529.097 2168.23 536.561 2160.65 536.561 2151.31L597.887 439.564C650.658 411.159 686.602 354.828 686.602 289.975C686.602 196.522 611.962 120.764 519.89 120.764C427.817 120.764 353.177 196.522 353.177 289.975Z"/>
</mask>
<path fill-rule="evenodd" clip-rule="evenodd" d="M353.177 289.975C353.177 354.828 389.121 411.159 441.892 439.564L503.218 2151.31C503.218 2160.65 510.682 2168.23 519.889 2168.23C529.097 2168.23 536.561 2160.65 536.561 2151.31L597.887 439.564C650.658 411.159 686.602 354.828 686.602 289.975C686.602 196.522 611.962 120.764 519.89 120.764C427.817 120.764 353.177 196.522 353.177 289.975Z" fill="#030713"/>
<path d="M441.892 439.564L449.804 424.866L458.231 429.402L458.574 438.966L441.892 439.564ZM503.218 2151.31L519.9 2150.71L519.91 2151.01V2151.31L503.218 2151.31ZM536.561 2151.31L519.869 2151.3V2151.01L519.879 2150.71L536.561 2151.31ZM597.887 439.564L581.205 438.967L581.548 429.402L589.975 424.866L597.887 439.564ZM433.981 454.262C375.936 423.018 336.485 361.121 336.485 289.975H369.869C369.869 348.535 402.306 399.299 449.804 424.866L433.981 454.262ZM486.537 2151.9L425.211 440.162L458.574 438.966L519.9 2150.71L486.537 2151.9ZM519.91 2151.31C519.91 2151.36 519.916 2151.4 519.92 2151.42C519.924 2151.44 519.93 2151.46 519.936 2151.47C519.949 2151.5 519.97 2151.53 519.991 2151.55C520.013 2151.58 520.016 2151.57 519.985 2151.56C519.968 2151.55 519.947 2151.54 519.924 2151.54C519.9 2151.53 519.886 2151.53 519.889 2151.53V2184.92C501.231 2184.92 486.526 2169.63 486.526 2151.3L519.91 2151.31ZM519.889 2151.53C519.893 2151.53 519.879 2151.53 519.855 2151.54C519.832 2151.54 519.81 2151.55 519.794 2151.56C519.763 2151.57 519.766 2151.58 519.787 2151.55C519.809 2151.53 519.829 2151.5 519.843 2151.47C519.849 2151.46 519.855 2151.44 519.859 2151.42C519.863 2151.39 519.869 2151.36 519.869 2151.3L553.253 2151.31C553.253 2169.63 538.548 2184.92 519.889 2184.92V2151.53ZM614.568 440.162L553.242 2151.9L519.879 2150.71L581.205 438.967L614.568 440.162ZM703.294 289.975C703.294 361.121 663.843 423.018 605.798 454.262L589.975 424.866C637.473 399.299 669.91 348.535 669.91 289.975H703.294ZM519.89 104.072C621.414 104.072 703.294 187.539 703.294 289.975H669.91C669.91 205.506 602.51 137.456 519.89 137.456V104.072ZM336.485 289.975C336.485 187.539 418.365 104.072 519.89 104.072V137.456C437.269 137.456 369.869 205.506 369.869 289.975H336.485Z" fill="#246C17" mask="url(#path-10-inside-4_3_93)"/>
</g>
<mask id="mask3_3_93" style="mask-type:alpha" maskUnits="userSpaceOnUse" x="226" y="1891" width="588" height="251">
<rect width="586.829" height="250.068" transform="matrix(-1 0 0 1 813.304 1891.18)" fill="#C4C4C4"/>
</mask>
<g mask="url(#mask3_3_93)">
<mask id="path-13-inside-5_3_93" fill="white">
<path fill-rule="evenodd" clip-rule="evenodd" d="M353.177 287.406C353.177 351.301 389.121 406.8 441.892 434.786L503.218 2121.25C503.218 2130.45 510.682 2137.92 519.889 2137.92C529.097 2137.92 536.561 2130.45 536.561 2121.25L597.887 434.786C650.658 406.8 686.602 351.301 686.602 287.406C686.602 195.333 611.962 120.694 519.89 120.694C427.817 120.694 353.177 195.333 353.177 287.406Z"/>
</mask>
<path fill-rule="evenodd" clip-rule="evenodd" d="M353.177 287.406C353.177 351.301 389.121 406.8 441.892 434.786L503.218 2121.25C503.218 2130.45 510.682 2137.92 519.889 2137.92C529.097 2137.92 536.561 2130.45 536.561 2121.25L597.887 434.786C650.658 406.8 686.602 351.301 686.602 287.406C686.602 195.333 611.962 120.694 519.89 120.694C427.817 120.694 353.177 195.333 353.177 287.406Z" fill="#030713"/>
<path d="M441.892 434.786L449.713 420.039L458.223 424.552L458.574 434.179L441.892 434.786ZM503.218 2121.25L519.899 2120.64L519.91 2120.94V2121.25L503.218 2121.25ZM536.561 2121.25L519.869 2121.25V2120.94L519.88 2120.64L536.561 2121.25ZM597.887 434.786L581.205 434.179L581.556 424.552L590.066 420.039L597.887 434.786ZM434.072 449.532C376.059 418.767 336.485 357.721 336.485 287.406H369.869C369.869 344.88 402.183 394.833 449.713 420.039L434.072 449.532ZM486.537 2121.85L425.211 435.392L458.574 434.179L519.899 2120.64L486.537 2121.85ZM519.91 2121.25C519.91 2121.26 519.911 2121.26 519.911 2121.26C519.911 2121.27 519.911 2121.26 519.91 2121.26C519.909 2121.26 519.908 2121.25 519.907 2121.25C519.905 2121.24 519.903 2121.24 519.902 2121.23C519.898 2121.22 519.896 2121.22 519.897 2121.22C519.897 2121.22 519.9 2121.23 519.904 2121.23C519.908 2121.23 519.911 2121.24 519.912 2121.24C519.913 2121.24 519.91 2121.24 519.902 2121.23C519.899 2121.23 519.894 2121.23 519.889 2121.23C519.884 2121.23 519.88 2121.23 519.876 2121.22C519.872 2121.22 519.87 2121.22 519.871 2121.22C519.872 2121.22 519.878 2121.22 519.889 2121.22V2154.61C501.464 2154.61 486.526 2139.67 486.526 2121.25L519.91 2121.25ZM519.889 2121.22C519.901 2121.22 519.906 2121.22 519.907 2121.22C519.909 2121.22 519.907 2121.22 519.903 2121.22C519.899 2121.23 519.894 2121.23 519.889 2121.23C519.885 2121.23 519.88 2121.23 519.876 2121.23C519.869 2121.24 519.866 2121.24 519.866 2121.24C519.867 2121.24 519.871 2121.23 519.875 2121.23C519.879 2121.23 519.882 2121.22 519.882 2121.22C519.883 2121.22 519.88 2121.22 519.877 2121.23C519.876 2121.24 519.874 2121.24 519.872 2121.25C519.871 2121.25 519.87 2121.26 519.869 2121.26C519.868 2121.26 519.868 2121.26 519.868 2121.26C519.868 2121.26 519.869 2121.26 519.869 2121.25L553.253 2121.25C553.253 2139.67 538.315 2154.61 519.889 2154.61V2121.22ZM614.568 435.392L553.242 2121.85L519.88 2120.64L581.205 434.179L614.568 435.392ZM703.294 287.406C703.294 357.721 663.72 418.767 605.707 449.532L590.066 420.039C637.596 394.833 669.91 344.88 669.91 287.406H703.294ZM519.89 104.001C621.181 104.001 703.294 186.115 703.294 287.406H669.91C669.91 204.552 602.744 137.386 519.89 137.386V104.001ZM336.485 287.406C336.485 186.115 418.598 104.001 519.89 104.001V137.386C437.035 137.386 369.869 204.552 369.869 287.406H336.485Z" fill="#246C17" mask="url(#path-13-inside-5_3_93)"/>
</g>
<mask id="mask4_3_93" style="mask-type:alpha" maskUnits="userSpaceOnUse" x="226" y="1170" width="588" height="410">
<rect width="586.829" height="409.017" transform="matrix(-1 0 0 1 813.304 1170.98)" fill="#C4C4C4"/>
</mask>
<g mask="url(#mask4_3_93)">
<mask id="path-16-inside-6_3_93" fill="white">
<path fill-rule="evenodd" clip-rule="evenodd" d="M353.177 267.737C353.177 333.054 389.121 389.789 441.892 418.398L503.218 2142.4C503.218 2142.4 503.218 2142.4 503.218 2142.4C503.218 2151.81 510.682 2159.44 519.889 2159.44C529.096 2159.44 536.56 2151.81 536.561 2142.4L597.887 418.398C650.658 389.789 686.602 333.054 686.602 267.737C686.602 173.615 611.962 97.3136 519.89 97.3136C427.817 97.3136 353.177 173.615 353.177 267.737Z"/>
</mask>
<path fill-rule="evenodd" clip-rule="evenodd" d="M353.177 267.737C353.177 333.054 389.121 389.789 441.892 418.398L503.218 2142.4C503.218 2142.4 503.218 2142.4 503.218 2142.4C503.218 2151.81 510.682 2159.44 519.889 2159.44C529.096 2159.44 536.56 2151.81 536.561 2142.4L597.887 418.398C650.658 389.789 686.602 333.054 686.602 267.737C686.602 173.615 611.962 97.3136 519.89 97.3136C427.817 97.3136 353.177 173.615 353.177 267.737Z" fill="#030713"/>
<path d="M441.892 418.398L449.848 403.723L458.235 408.27L458.574 417.804L441.892 418.398ZM503.218 2142.4L519.9 2141.8L519.91 2142.1V2142.4H503.218ZM536.561 2142.4L519.869 2142.4L519.869 2142.1L519.879 2141.81L536.561 2142.4ZM597.887 418.398L581.205 417.804L581.544 408.27L589.931 403.723L597.887 418.398ZM433.937 433.072C375.878 401.597 336.485 339.286 336.485 267.737H369.869C369.869 326.822 402.364 377.981 449.848 403.723L433.937 433.072ZM486.536 2142.99L425.211 418.991L458.574 417.804L519.9 2141.8L486.536 2142.99ZM519.91 2142.4C519.91 2142.4 519.91 2142.4 519.91 2142.4C519.91 2142.4 519.91 2142.4 519.91 2142.4C519.91 2142.4 519.91 2142.4 519.91 2142.4V2142.4C519.91 2142.4 519.91 2142.4 519.91 2142.4C519.91 2142.4 519.91 2142.4 519.91 2142.4C519.91 2142.4 519.91 2142.4 519.91 2142.4C519.91 2142.4 519.91 2142.4 519.91 2142.4C519.91 2142.4 519.91 2142.4 519.91 2142.4C519.91 2142.4 519.91 2142.4 519.91 2142.4V2142.4V2142.4C519.91 2142.4 519.91 2142.4 519.91 2142.4C519.91 2142.4 519.91 2142.4 519.91 2142.4C519.91 2142.4 519.91 2142.4 519.91 2142.4C519.91 2142.4 519.91 2142.4 519.91 2142.4C519.91 2142.4 519.91 2142.4 519.91 2142.4C519.91 2142.4 519.91 2142.4 519.91 2142.4V2142.4C519.91 2142.4 519.91 2142.4 519.91 2142.4C519.91 2142.4 519.91 2142.4 519.91 2142.4C519.91 2142.4 519.91 2142.4 519.91 2142.4H486.526C486.526 2142.4 486.526 2142.4 486.526 2142.4C486.526 2142.4 486.526 2142.4 486.526 2142.4C486.526 2142.4 486.526 2142.4 486.526 2142.4V2142.4C486.526 2142.4 486.526 2142.4 486.526 2142.4C486.526 2142.4 486.526 2142.4 486.526 2142.4C486.526 2142.4 486.526 2142.4 486.526 2142.4C486.526 2142.4 486.526 2142.4 486.526 2142.4C486.526 2142.4 486.526 2142.4 486.526 2142.4C486.526 2142.4 486.526 2142.4 486.526 2142.4V2142.4V2142.4C486.526 2142.4 486.526 2142.4 486.526 2142.4C486.526 2142.4 486.526 2142.4 486.526 2142.4C486.526 2142.4 486.526 2142.4 486.526 2142.4C486.526 2142.4 486.526 2142.4 486.526 2142.4C486.526 2142.4 486.526 2142.4 486.526 2142.4C486.526 2142.4 486.526 2142.4 486.526 2142.4V2142.4C486.526 2142.4 486.526 2142.4 486.526 2142.4C486.526 2142.4 486.526 2142.4 486.526 2142.4C486.526 2142.4 486.526 2142.4 486.526 2142.4H519.91ZM519.91 2142.4C519.91 2142.53 519.934 2142.61 519.952 2142.65C519.975 2142.71 520.006 2142.75 520.034 2142.78C520.061 2142.81 520.064 2142.8 520.025 2142.78C520.004 2142.77 519.978 2142.76 519.947 2142.76C519.916 2142.75 519.894 2142.75 519.889 2142.75V2176.13C501.118 2176.13 486.526 2160.68 486.526 2142.4H519.91ZM519.889 2142.75C519.884 2142.75 519.863 2142.75 519.831 2142.76C519.801 2142.76 519.774 2142.77 519.754 2142.78C519.714 2142.8 519.718 2142.81 519.745 2142.78C519.773 2142.75 519.804 2142.71 519.827 2142.65C519.845 2142.61 519.869 2142.53 519.869 2142.4L553.253 2142.4C553.251 2160.68 538.659 2176.13 519.889 2176.13V2142.75ZM614.568 418.991L553.242 2142.99L519.879 2141.81L581.205 417.804L614.568 418.991ZM703.294 267.737C703.294 339.286 663.901 401.597 605.842 433.072L589.931 403.723C637.415 377.981 669.91 326.822 669.91 267.737H703.294ZM519.89 80.6215C621.526 80.6215 703.294 164.744 703.294 267.737H669.91C669.91 182.485 602.399 114.006 519.89 114.006V80.6215ZM336.485 267.737C336.485 164.744 418.253 80.6215 519.89 80.6215V114.006C437.38 114.006 369.869 182.485 369.869 267.737H336.485Z" fill="#246C17" mask="url(#path-16-inside-6_3_93)"/>
</g>
</g>
<defs>
<filter id="filter0_d_3_93" x="-0.000305176" y="-96" width="1040" height="2357.25" filterUnits="userSpaceOnUse" color-interpolation-filters="sRGB">
<feFlood flood-opacity="0" result="BackgroundImageFix"/>
<feColorMatrix in="SourceAlpha" type="matrix" values="0 0 0 0 0 0 0 0 0 0 0 0 0 0 0 0 0 0 127 0" result="hardAlpha"/>
<feOffset/>
<feGaussianBlur stdDeviation="60"/>
<feComposite in2="hardAlpha" operator="out"/>
<feColorMatrix type="matrix" values="0 0 0 0 0.980392 0 0 0 0 0.980392 0 0 0 0 0.980392 0 0 0 1 0"/>
<feBlend mode="normal" in2="BackgroundImageFix" result="effect1_dropShadow_3_93"/>
<feBlend mode="normal" in="SourceGraphic" in2="effect1_dropShadow_3_93" result="shape"/>
</filter>
</defs>
</svg>
