<svg width="1040" height="2258" viewBox="0 0 1040 2258" fill="none" xmlns="http://www.w3.org/2000/svg">
<g filter="url(#filter0_d_3_20)">
<mask id="mask0_3_20" style="mask-type:alpha" maskUnits="userSpaceOnUse" x="226" y="1571" width="588" height="326">
<rect width="586.829" height="325.906" transform="matrix(-1 0 0 1 813.304 1571.09)" fill="#C4C4C4"/>
</mask>
<g mask="url(#mask0_3_20)">
<mask id="path-2-inside-1_3_20" fill="white">
<path fill-rule="evenodd" clip-rule="evenodd" d="M353.177 264.079C353.177 329.135 389.121 385.642 441.892 414.137L503.218 2131.24C503.218 2140.62 510.682 2148.22 519.889 2148.22C529.097 2148.22 536.561 2140.62 536.561 2131.24L597.886 414.137C650.658 385.642 686.602 329.135 686.602 264.079C686.602 170.333 611.962 94.3373 519.889 94.3373C427.817 94.3373 353.177 170.333 353.177 264.079Z"/>
</mask>
<path fill-rule="evenodd" clip-rule="evenodd" d="M353.177 264.079C353.177 329.135 389.121 385.642 441.892 414.137L503.218 2131.24C503.218 2140.62 510.682 2148.22 519.889 2148.22C529.097 2148.22 536.561 2140.62 536.561 2131.24L597.886 414.137C650.658 385.642 686.602 329.135 686.602 264.079C686.602 170.333 611.962 94.3373 519.889 94.3373C427.817 94.3373 353.177 170.333 353.177 264.079Z" fill="#030713"/>
<path d="M441.892 414.137L449.823 399.449L458.233 403.99L458.574 413.541L441.892 414.137ZM503.218 2131.24L519.9 2130.65L519.91 2130.95L519.91 2131.24L503.218 2131.24ZM536.561 2131.24L519.869 2131.24V2130.94L519.879 2130.65L536.561 2131.24ZM597.886 414.137L581.205 413.541L581.546 403.99L589.956 399.449L597.886 414.137ZM433.962 428.825C375.911 397.479 336.485 335.401 336.485 264.079H369.869C369.869 322.869 402.332 373.806 449.823 399.449L433.962 428.825ZM486.537 2131.84L425.211 414.733L458.574 413.541L519.9 2130.65L486.537 2131.84ZM519.91 2131.24C519.91 2131.31 519.916 2131.35 519.922 2131.37C519.927 2131.4 519.935 2131.43 519.943 2131.45C519.961 2131.49 519.986 2131.52 520.01 2131.55C520.034 2131.57 520.037 2131.57 520.002 2131.55C519.984 2131.54 519.96 2131.54 519.934 2131.53C519.921 2131.53 519.91 2131.53 519.902 2131.53C519.893 2131.52 519.888 2131.52 519.889 2131.52V2164.91C501.181 2164.91 486.526 2149.55 486.526 2131.24L519.91 2131.24ZM519.889 2131.52C519.89 2131.52 519.886 2131.52 519.877 2131.53C519.868 2131.53 519.857 2131.53 519.845 2131.53C519.818 2131.54 519.795 2131.54 519.776 2131.55C519.741 2131.57 519.745 2131.57 519.769 2131.55C519.793 2131.52 519.818 2131.49 519.836 2131.45C519.844 2131.43 519.851 2131.4 519.857 2131.37C519.863 2131.35 519.869 2131.3 519.869 2131.24L553.253 2131.24C553.253 2149.55 538.597 2164.91 519.889 2164.91V2131.52ZM614.568 414.733L553.242 2131.84L519.879 2130.65L581.205 413.541L614.568 414.733ZM703.294 264.079C703.294 335.401 663.868 397.479 605.817 428.825L589.956 399.449C637.447 373.806 669.91 322.869 669.91 264.079H703.294ZM519.889 77.6452C621.463 77.6452 703.294 161.399 703.294 264.079H669.91C669.91 179.268 602.461 111.029 519.889 111.029V77.6452ZM336.485 264.079C336.485 161.399 418.316 77.6452 519.889 77.6452V111.029C437.318 111.029 369.869 179.268 369.869 264.079H336.485Z" fill="#246C17" mask="url(#path-2-inside-1_3_20)"/>
</g>
<mask id="mask1_3_20" style="mask-type:alpha" maskUnits="userSpaceOnUse" x="226" y="747" width="588" height="436">
<rect width="586.829" height="435.467" transform="matrix(-1 0 0 1 813.304 747.533)" fill="#C4C4C4"/>
</mask>
<g mask="url(#mask1_3_20)">
<mask id="path-5-inside-2_3_20" fill="white">
<path fill-rule="evenodd" clip-rule="evenodd" d="M353.177 274.349C353.177 340.057 389.121 397.131 441.892 425.911L503.218 2160.23C503.218 2169.7 510.682 2177.37 519.889 2177.37C529.097 2177.37 536.561 2169.7 536.561 2160.23L597.886 425.911C650.658 397.131 686.602 340.057 686.602 274.349C686.602 179.664 611.962 102.906 519.889 102.906C427.817 102.906 353.177 179.664 353.177 274.349Z"/>
</mask>
<path fill-rule="evenodd" clip-rule="evenodd" d="M353.177 274.349C353.177 340.057 389.121 397.131 441.892 425.911L503.218 2160.23C503.218 2169.7 510.682 2177.37 519.889 2177.37C529.097 2177.37 536.561 2169.7 536.561 2160.23L597.886 425.911C650.658 397.131 686.602 340.057 686.602 274.349C686.602 179.664 611.962 102.906 519.889 102.906C427.817 102.906 353.177 179.664 353.177 274.349Z" fill="#030713"/>
<path d="M441.892 425.911L449.885 411.256L458.238 415.812L458.574 425.321L441.892 425.911ZM503.218 2160.23L519.9 2159.64L519.91 2159.93L519.91 2160.23L503.218 2160.23ZM536.561 2160.23L519.869 2160.23V2159.93L519.879 2159.64L536.561 2160.23ZM597.886 425.911L581.205 425.321L581.541 415.812L589.894 411.256L597.886 425.911ZM433.9 440.565C375.83 408.895 336.485 346.238 336.485 274.349H369.869C369.869 333.875 402.412 385.366 449.885 411.256L433.9 440.565ZM486.536 2160.82L425.211 426.501L458.574 425.321L519.9 2159.64L486.536 2160.82ZM519.91 2160.23C519.91 2160.39 519.939 2160.49 519.965 2160.55C519.996 2160.63 520.036 2160.68 520.068 2160.71C520.1 2160.75 520.104 2160.74 520.058 2160.72C520.034 2160.71 520.003 2160.7 519.967 2160.69C519.929 2160.68 519.901 2160.68 519.889 2160.68V2194.06C501.027 2194.06 486.526 2178.47 486.526 2160.23L519.91 2160.23ZM519.889 2160.68C519.877 2160.68 519.849 2160.68 519.812 2160.69C519.776 2160.7 519.744 2160.71 519.721 2160.72C519.675 2160.74 519.679 2160.75 519.711 2160.71C519.743 2160.68 519.783 2160.63 519.813 2160.55C519.84 2160.49 519.869 2160.39 519.869 2160.23L553.253 2160.23C553.253 2178.47 538.752 2194.06 519.889 2194.06V2160.68ZM614.568 426.501L553.242 2160.82L519.879 2159.64L581.205 425.321L614.568 426.501ZM703.294 274.349C703.294 346.238 663.948 408.895 605.879 440.565L589.894 411.256C637.367 385.366 669.91 333.875 669.91 274.349H703.294ZM519.889 86.2135C621.618 86.2135 703.294 170.888 703.294 274.349H669.91C669.91 188.439 602.306 119.598 519.889 119.598V86.2135ZM336.485 274.349C336.485 170.888 418.161 86.2135 519.889 86.2135V119.598C437.473 119.598 369.869 188.439 369.869 274.349H336.485Z" fill="#246C17" mask="url(#path-5-inside-2_3_20)"/>
</g>
<mask id="path-7-inside-3_3_20" fill="white">
<path fill-rule="evenodd" clip-rule="evenodd" d="M920 702.963C920 702.963 869.17 566.328 777.695 522.628C724.263 497.101 687.132 517.696 665.489 539.241C547.348 525.819 120 495.526 120 759.672C120 927.093 300.481 966.783 464.283 1002.8C600.371 1032.73 724.946 1060.13 724.946 1156.14C724.946 1255.31 598.933 1286.75 465.045 1320.15C313.307 1358.01 151.454 1398.39 151.454 1542.75C151.454 1704.98 325.558 1757.13 465.887 1799.15C560.614 1827.52 639.95 1851.28 639.95 1901.19C639.95 2025.01 234.811 2027.9 234.811 2027.9C234.811 2027.9 795.128 2132.18 795.128 1901.19C795.128 1773.9 657.839 1730.2 534.558 1690.95C434.102 1658.97 342.946 1629.96 342.946 1561.09C342.946 1500.6 426.506 1481.08 527.714 1457.44C683.115 1421.14 880.123 1375.13 880.123 1156.14C880.123 937.58 672.404 894.979 508.056 861.273C400.484 839.211 311.492 820.96 311.492 759.672C311.492 642.669 530.486 644.436 637.689 652.31C644.956 671.927 660.413 691.3 690.294 705.576C781.768 749.276 920 702.963 920 702.963ZM741.62 600.139C725.579 593.159 716.15 579.288 720.558 569.157C724.967 559.025 741.544 556.471 757.585 563.451C773.626 570.431 783.056 584.303 778.647 594.434C774.239 604.565 757.661 607.12 741.62 600.139Z"/>
</mask>
<path fill-rule="evenodd" clip-rule="evenodd" d="M920 702.963C920 702.963 869.17 566.328 777.695 522.628C724.263 497.101 687.132 517.696 665.489 539.241C547.348 525.819 120 495.526 120 759.672C120 927.093 300.481 966.783 464.283 1002.8C600.371 1032.73 724.946 1060.13 724.946 1156.14C724.946 1255.31 598.933 1286.75 465.045 1320.15C313.307 1358.01 151.454 1398.39 151.454 1542.75C151.454 1704.98 325.558 1757.13 465.887 1799.15C560.614 1827.52 639.95 1851.28 639.95 1901.19C639.95 2025.01 234.811 2027.9 234.811 2027.9C234.811 2027.9 795.128 2132.18 795.128 1901.19C795.128 1773.9 657.839 1730.2 534.558 1690.95C434.102 1658.97 342.946 1629.96 342.946 1561.09C342.946 1500.6 426.506 1481.08 527.714 1457.44C683.115 1421.14 880.123 1375.13 880.123 1156.14C880.123 937.58 672.404 894.979 508.056 861.273C400.484 839.211 311.492 820.96 311.492 759.672C311.492 642.669 530.486 644.436 637.689 652.31C644.956 671.927 660.413 691.3 690.294 705.576C781.768 749.276 920 702.963 920 702.963ZM741.62 600.139C725.579 593.159 716.15 579.288 720.558 569.157C724.967 559.025 741.544 556.471 757.585 563.451C773.626 570.431 783.056 584.303 778.647 594.434C774.239 604.565 757.661 607.12 741.62 600.139Z" fill="#030713"/>
<path d="M777.695 522.628L770.5 537.689L777.695 522.628ZM920 702.963L935.645 697.143L941.659 713.31L925.303 718.79L920 702.963ZM665.489 539.241L677.265 551.071L671.578 556.732L663.604 555.826L665.489 539.241ZM464.283 1002.8L467.868 986.502L464.283 1002.8ZM465.045 1320.15L469.086 1336.35L465.045 1320.15ZM465.887 1799.15L470.675 1783.16L465.887 1799.15ZM234.811 2027.9L231.756 2044.31L234.692 2011.21L234.811 2027.9ZM534.558 1690.95L539.621 1675.05H539.621L534.558 1690.95ZM527.714 1457.44L531.511 1473.7H531.511L527.714 1457.44ZM508.056 861.273L511.41 844.922L508.056 861.273ZM637.689 652.31L638.911 635.663L649.613 636.449L653.341 646.511L637.689 652.31ZM690.294 705.576L697.49 690.514L690.294 705.576ZM720.558 569.157L705.252 562.496V562.496L720.558 569.157ZM741.62 600.139L734.96 615.445L734.96 615.445L741.62 600.139ZM757.585 563.451L764.245 548.145L757.585 563.451ZM784.891 507.566C835.104 531.554 872.782 580.086 897.405 620.497C909.892 640.992 919.403 660.037 925.798 673.966C929 680.941 931.434 686.659 933.079 690.668C933.902 692.674 934.529 694.253 934.957 695.351C935.171 695.899 935.336 696.328 935.451 696.629C935.508 696.779 935.553 696.898 935.585 696.984C935.601 697.027 935.614 697.062 935.624 697.088C935.629 697.102 935.633 697.113 935.637 697.122C935.638 697.126 935.64 697.132 935.641 697.134C935.643 697.139 935.645 697.143 920 702.963C904.355 708.783 904.357 708.786 904.358 708.789C904.358 708.789 904.358 708.791 904.359 708.792C904.359 708.792 904.358 708.791 904.357 708.788C904.355 708.781 904.349 708.766 904.341 708.744C904.323 708.698 904.294 708.62 904.252 708.511C904.169 708.292 904.037 707.948 903.856 707.485C903.495 706.56 902.941 705.161 902.195 703.345C900.704 699.711 898.451 694.413 895.459 687.896C889.465 674.84 880.551 656.995 868.896 637.868C845.235 599.037 811.762 557.401 770.5 537.689L784.891 507.566ZM653.712 527.411C665.948 515.231 683.187 502.679 705.636 497.086C728.411 491.411 755.012 493.292 784.891 507.566L770.5 537.689C746.947 526.437 728.266 525.852 713.707 529.48C698.821 533.188 686.673 541.706 677.265 551.071L653.712 527.411ZM103.308 759.672C103.308 688.37 132.471 636.066 178.085 598.957C223.007 562.411 283.155 541.121 345.24 528.987C469.453 504.709 607.922 515.901 667.373 522.655L663.604 555.826C604.914 549.159 470.639 538.493 351.643 561.751C292.123 573.384 238.05 593.209 199.153 624.854C160.947 655.937 136.692 698.902 136.692 759.672H103.308ZM460.698 1019.11C379.451 1001.24 290.861 981.89 222.796 945.207C188.484 926.714 158.492 903.381 137.085 872.799C115.529 842.006 103.308 804.751 103.308 759.672H136.692C136.692 798.304 147.031 828.793 164.434 853.654C181.985 878.727 207.351 898.959 238.635 915.819C301.761 949.841 385.312 968.347 467.868 986.502L460.698 1019.11ZM708.254 1156.14C708.254 1117.66 684.251 1091.24 638.558 1069.8C592.458 1048.18 529.373 1034.21 460.698 1019.11L467.868 986.502C535.28 1001.33 602.527 1016.02 652.737 1039.58C703.353 1063.32 741.638 1098.6 741.638 1156.14H708.254ZM461.004 1303.96C528.56 1287.1 591.461 1271.32 637.662 1247.92C683.429 1224.74 708.254 1196.55 708.254 1156.14H741.638C741.638 1214.89 703.457 1252.02 652.746 1277.7C602.467 1303.16 535.418 1319.8 469.086 1336.35L461.004 1303.96ZM134.762 1542.75C134.762 1462.46 180.588 1411.58 243.268 1376.91C305.005 1342.76 385.76 1322.73 461.004 1303.96L469.086 1336.35C392.592 1355.43 316.552 1374.52 259.427 1406.12C203.247 1437.2 168.146 1478.69 168.146 1542.75H134.762ZM461.098 1815.14C391.466 1794.29 310.5 1770.16 247.134 1730.14C182.936 1689.6 134.762 1631.36 134.762 1542.75H168.146C168.146 1616.37 207.025 1665.33 264.961 1701.92C323.729 1739.03 399.979 1761.99 470.675 1783.16L461.098 1815.14ZM623.258 1901.19C623.258 1886.74 612.096 1872.47 581.019 1857.05C550.903 1842.09 508.966 1829.48 461.098 1815.14L470.675 1783.16C517.534 1797.2 562.629 1810.64 595.863 1827.14C628.136 1843.16 656.643 1865.73 656.643 1901.19H623.258ZM234.811 2027.9C234.692 2011.21 234.691 2011.21 234.691 2011.21C234.694 2011.21 234.696 2011.21 234.7 2011.21C234.709 2011.21 234.724 2011.21 234.745 2011.21C234.788 2011.21 234.854 2011.2 234.945 2011.2C235.126 2011.2 235.403 2011.2 235.772 2011.19C236.51 2011.19 237.618 2011.17 239.072 2011.15C241.979 2011.1 246.266 2011.01 251.736 2010.85C262.678 2010.53 278.34 2009.94 297.146 2008.85C334.808 2006.66 384.849 2002.47 434.744 1994.49C484.908 1986.47 533.734 1974.79 569.602 1958.09C606.616 1940.86 623.258 1921.58 623.258 1901.19H656.643C656.643 1942.71 622.642 1970.22 583.693 1988.36C543.597 2007.02 491.138 2019.28 440.017 2027.46C388.627 2035.68 337.383 2039.95 299.081 2042.18C279.905 2043.29 263.916 2043.89 252.702 2044.22C247.094 2044.38 242.677 2044.47 239.649 2044.52C238.135 2044.55 236.969 2044.57 236.174 2044.58C235.776 2044.58 235.472 2044.58 235.263 2044.59C235.159 2044.59 235.079 2044.59 235.023 2044.59C234.995 2044.59 234.974 2044.59 234.958 2044.59C234.95 2044.59 234.943 2044.59 234.939 2044.59C234.933 2044.59 234.929 2044.59 234.811 2027.9ZM811.82 1901.19C811.82 1933.73 801.852 1961.05 784.113 1983.34C766.584 2005.38 742.127 2021.69 714.201 2033.76C658.657 2057.77 586.003 2066.44 515.303 2067.85C444.223 2069.28 373.36 2063.38 320.414 2057.16C293.903 2054.05 271.801 2050.85 256.303 2048.42C248.552 2047.2 242.449 2046.18 238.268 2045.46C236.177 2045.1 234.566 2044.82 233.469 2044.62C232.921 2044.52 232.501 2044.44 232.214 2044.39C232.071 2044.37 231.961 2044.35 231.884 2044.33C231.846 2044.32 231.816 2044.32 231.795 2044.32C231.784 2044.31 231.774 2044.31 231.769 2044.31C231.762 2044.31 231.756 2044.31 234.811 2027.9C237.865 2011.49 237.864 2011.49 237.865 2011.49C237.868 2011.49 237.871 2011.49 237.878 2011.49C237.89 2011.49 237.911 2011.5 237.941 2011.5C238 2011.51 238.093 2011.53 238.219 2011.55C238.471 2011.6 238.855 2011.67 239.366 2011.76C240.39 2011.94 241.926 2012.22 243.939 2012.56C247.965 2013.26 253.9 2014.25 261.47 2015.44C276.615 2017.81 298.287 2020.95 324.306 2024C376.419 2030.12 445.636 2035.86 514.635 2034.48C584.014 2033.09 651.44 2024.52 700.955 2003.11C725.559 1992.48 744.877 1979.04 757.99 1962.56C770.893 1946.34 778.435 1926.39 778.435 1901.19H811.82ZM539.621 1675.05C600.701 1694.49 668.121 1715.84 720.054 1748.99C772.801 1782.65 811.82 1830.01 811.82 1901.19H778.435C778.435 1845.08 748.81 1806.94 702.093 1777.13C654.561 1746.79 591.696 1726.66 529.494 1706.86L539.621 1675.05ZM359.638 1561.09C359.638 1586.41 375.785 1606.49 409.258 1625.3C442.793 1644.14 488.842 1658.88 539.621 1675.05L529.494 1706.86C479.818 1691.05 430.061 1675.28 392.904 1654.41C355.685 1633.49 326.254 1604.63 326.254 1561.09H359.638ZM531.511 1473.7C480.293 1485.66 436.007 1496.08 404.341 1510.62C372.684 1525.15 359.638 1540.88 359.638 1561.09H326.254C326.254 1520.81 354.988 1496.54 390.414 1480.28C425.829 1464.02 473.927 1452.86 523.917 1441.19L531.511 1473.7ZM896.815 1156.14C896.815 1272.01 844.05 1343.3 771.113 1389.41C699.619 1434.6 608.58 1455.69 531.511 1473.7L523.917 1441.19C602.249 1422.89 687.415 1402.82 753.275 1361.19C817.692 1320.47 863.431 1259.25 863.431 1156.14H896.815ZM511.41 844.922C592.935 861.642 688.837 881.143 764.117 924.96C802.083 947.058 835.439 975.663 859.253 1013.75C883.13 1051.94 896.815 1098.72 896.815 1156.14H863.431C863.431 1104.28 851.152 1063.77 830.946 1031.45C810.676 999.029 781.83 973.897 747.323 953.812C677.658 913.264 587.525 894.611 504.703 877.625L511.41 844.922ZM328.184 759.672C328.184 779.705 341.778 795.472 375.894 809.791C409.74 823.997 457.016 833.766 511.41 844.922L504.703 877.625C451.524 866.719 400.518 856.331 362.974 840.574C325.701 824.93 294.8 800.928 294.8 759.672H328.184ZM636.466 668.957C583.205 665.045 503.464 662.786 437.563 675.549C404.526 681.948 376.557 691.838 357.208 705.924C338.541 719.513 328.184 736.653 328.184 759.672H294.8C294.8 724.19 311.817 697.674 337.561 678.934C362.623 660.689 396.103 649.575 431.215 642.774C501.612 629.14 584.97 631.701 638.911 635.663L636.466 668.957ZM683.099 720.637C649.586 704.627 630.918 682.082 622.036 658.109L653.341 646.511C658.995 661.772 671.24 677.974 697.49 690.514L683.099 720.637ZM920 702.963C925.303 718.79 925.299 718.792 925.294 718.793C925.291 718.794 925.286 718.796 925.282 718.798C925.272 718.801 925.261 718.804 925.248 718.809C925.221 718.818 925.185 718.83 925.142 718.844C925.055 718.873 924.934 718.912 924.781 718.962C924.475 719.062 924.038 719.204 923.477 719.382C922.354 719.738 920.731 720.243 918.654 720.863C914.501 722.102 908.524 723.802 901.086 725.694C886.232 729.471 865.44 734.04 841.65 737.203C794.741 743.441 733.312 744.626 683.099 720.637L697.49 690.514C738.751 710.226 792.174 710.104 837.25 704.111C859.452 701.158 878.935 696.88 892.858 693.339C899.809 691.572 905.345 689.995 909.109 688.872C910.991 688.311 912.427 687.864 913.374 687.563C913.847 687.413 914.198 687.299 914.42 687.227C914.532 687.19 914.611 687.164 914.657 687.149C914.68 687.141 914.695 687.136 914.702 687.134C914.705 687.133 914.707 687.132 914.706 687.133C914.705 687.133 914.703 687.134 914.703 687.134C914.7 687.135 914.697 687.136 920 702.963ZM735.864 575.817C736.751 573.779 735.305 573.62 737.225 576.445C739.004 579.062 742.7 582.405 748.281 584.834L734.96 615.445C724.5 610.894 715.461 603.811 709.616 595.214C703.914 586.825 699.957 574.666 705.252 562.496L735.864 575.817ZM750.925 578.757C745.344 576.328 740.378 575.903 737.251 576.385C733.875 576.905 734.977 577.855 735.864 575.817L705.252 562.496C710.548 550.327 722.142 544.934 732.167 543.39C742.442 541.807 753.785 543.594 764.245 548.145L750.925 578.757ZM763.342 587.774C762.455 589.812 763.901 589.97 761.98 587.145C760.202 584.529 756.506 581.186 750.925 578.757L764.245 548.145C774.705 552.697 783.745 559.78 789.589 568.377C795.292 576.765 799.249 588.925 793.953 601.094L763.342 587.774ZM748.281 584.834C753.862 587.262 758.827 587.688 761.954 587.206C765.33 586.686 764.229 585.736 763.342 587.774L793.953 601.094C788.658 613.264 777.063 618.656 767.038 620.201C756.764 621.784 745.42 619.997 734.96 615.445L748.281 584.834Z" fill="#246C17" mask="url(#path-7-inside-3_3_20)"/>
<mask id="mask2_3_20" style="mask-type:alpha" maskUnits="userSpaceOnUse" x="226" y="1891" width="588" height="251">
<rect width="586.829" height="250.068" transform="matrix(-1 0 0 1 813.304 1891.18)" fill="#C4C4C4"/>
</mask>
<g mask="url(#mask2_3_20)">
<mask id="path-10-inside-4_3_20" fill="white">
<path fill-rule="evenodd" clip-rule="evenodd" d="M353.177 287.406C353.177 351.301 389.121 406.8 441.892 434.786L503.218 2121.25C503.218 2130.45 510.682 2137.92 519.889 2137.92C529.097 2137.92 536.561 2130.45 536.561 2121.25L597.887 434.786C650.658 406.8 686.602 351.301 686.602 287.406C686.602 195.333 611.962 120.694 519.89 120.694C427.817 120.694 353.177 195.333 353.177 287.406Z"/>
</mask>
<path fill-rule="evenodd" clip-rule="evenodd" d="M353.177 287.406C353.177 351.301 389.121 406.8 441.892 434.786L503.218 2121.25C503.218 2130.45 510.682 2137.92 519.889 2137.92C529.097 2137.92 536.561 2130.45 536.561 2121.25L597.887 434.786C650.658 406.8 686.602 351.301 686.602 287.406C686.602 195.333 611.962 120.694 519.89 120.694C427.817 120.694 353.177 195.333 353.177 287.406Z" fill="#030713"/>
<path d="M441.892 434.786L449.713 420.039L458.223 424.552L458.574 434.179L441.892 434.786ZM503.218 2121.25L519.899 2120.64L519.91 2120.94V2121.25L503.218 2121.25ZM536.561 2121.25L519.869 2121.25V2120.94L519.88 2120.64L536.561 2121.25ZM597.887 434.786L581.205 434.179L581.556 424.552L590.066 420.039L597.887 434.786ZM434.072 449.532C376.059 418.767 336.485 357.721 336.485 287.406H369.869C369.869 344.88 402.183 394.833 449.713 420.039L434.072 449.532ZM486.537 2121.85L425.211 435.392L458.574 434.179L519.899 2120.64L486.537 2121.85ZM519.91 2121.25C519.91 2121.26 519.911 2121.26 519.911 2121.26C519.911 2121.27 519.911 2121.26 519.91 2121.26C519.909 2121.26 519.908 2121.25 519.907 2121.25C519.905 2121.24 519.903 2121.24 519.902 2121.23C519.898 2121.22 519.896 2121.22 519.897 2121.22C519.897 2121.22 519.9 2121.23 519.904 2121.23C519.908 2121.23 519.911 2121.24 519.912 2121.24C519.913 2121.24 519.91 2121.24 519.902 2121.23C519.899 2121.23 519.894 2121.23 519.889 2121.23C519.884 2121.23 519.88 2121.23 519.876 2121.22C519.872 2121.22 519.87 2121.22 519.871 2121.22C519.872 2121.22 519.878 2121.22 519.889 2121.22V2154.61C501.464 2154.61 486.526 2139.67 486.526 2121.25L519.91 2121.25ZM519.889 2121.22C519.901 2121.22 519.906 2121.22 519.907 2121.22C519.909 2121.22 519.907 2121.22 519.903 2121.22C519.899 2121.23 519.894 2121.23 519.889 2121.23C519.885 2121.23 519.88 2121.23 519.876 2121.23C519.869 2121.24 519.866 2121.24 519.866 2121.24C519.867 2121.24 519.871 2121.23 519.875 2121.23C519.879 2121.23 519.882 2121.22 519.882 2121.22C519.883 2121.22 519.881 2121.22 519.877 2121.23C519.876 2121.24 519.874 2121.24 519.872 2121.25C519.871 2121.25 519.87 2121.26 519.869 2121.26C519.868 2121.26 519.868 2121.26 519.868 2121.26C519.868 2121.26 519.869 2121.26 519.869 2121.25L553.253 2121.25C553.253 2139.67 538.315 2154.61 519.889 2154.61V2121.22ZM614.568 435.392L553.242 2121.85L519.88 2120.64L581.205 434.179L614.568 435.392ZM703.294 287.406C703.294 357.721 663.72 418.767 605.707 449.532L590.066 420.039C637.596 394.833 669.91 344.88 669.91 287.406H703.294ZM519.89 104.001C621.181 104.001 703.294 186.115 703.294 287.406H669.91C669.91 204.552 602.744 137.386 519.89 137.386V104.001ZM336.485 287.406C336.485 186.115 418.598 104.001 519.89 104.001V137.386C437.035 137.386 369.869 204.552 369.869 287.406H336.485Z" fill="#246C17" mask="url(#path-10-inside-4_3_20)"/>
</g>
<mask id="mask3_3_20" style="mask-type:alpha" maskUnits="userSpaceOnUse" x="226" y="1170" width="588" height="408">
<rect width="586.829" height="407.017" transform="matrix(-1 0 0 1 813.304 1170.98)" fill="#C4C4C4"/>
</mask>
<g mask="url(#mask3_3_20)">
<mask id="path-13-inside-5_3_20" fill="white">
<path fill-rule="evenodd" clip-rule="evenodd" d="M353.177 272.154C353.177 337.151 389.121 393.608 441.892 422.077L503.218 2137.65C503.218 2137.65 503.218 2137.65 503.218 2137.65C503.218 2147.02 510.682 2154.61 519.889 2154.61C529.096 2154.61 536.56 2147.02 536.561 2137.65L597.886 422.078C650.658 393.609 686.602 337.151 686.602 272.154C686.602 178.492 611.962 102.564 519.889 102.564C427.817 102.564 353.177 178.492 353.177 272.154Z"/>
</mask>
<path fill-rule="evenodd" clip-rule="evenodd" d="M353.177 272.154C353.177 337.151 389.121 393.608 441.892 422.077L503.218 2137.65C503.218 2137.65 503.218 2137.65 503.218 2137.65C503.218 2147.02 510.682 2154.61 519.889 2154.61C529.096 2154.61 536.56 2147.02 536.561 2137.65L597.886 422.078C650.658 393.609 686.602 337.151 686.602 272.154C686.602 178.492 611.962 102.564 519.889 102.564C427.817 102.564 353.177 178.492 353.177 272.154Z" fill="#030713"/>
<path d="M441.892 422.077L449.818 407.387L458.232 411.926L458.574 421.481L441.892 422.077ZM503.218 2137.65L519.899 2137.05L519.91 2137.35V2137.65H503.218ZM536.561 2137.65L519.869 2137.65L519.869 2137.35L519.879 2137.05L536.561 2137.65ZM597.886 422.078L581.205 421.481L581.547 411.926L589.961 407.387L597.886 422.078ZM433.967 436.768C375.918 405.452 336.485 343.425 336.485 272.154H369.869C369.869 330.877 402.324 381.765 449.818 407.387L433.967 436.768ZM486.536 2138.24L425.211 422.674L458.574 421.481L519.899 2137.05L486.536 2138.24ZM519.91 2137.65V2137.65C519.91 2137.65 519.91 2137.65 519.91 2137.65C519.91 2137.65 519.91 2137.65 519.91 2137.65V2137.65C519.91 2137.65 519.91 2137.65 519.91 2137.65V2137.65C519.91 2137.65 519.91 2137.65 519.91 2137.65C519.91 2137.65 519.91 2137.65 519.91 2137.65V2137.65V2137.65C519.91 2137.65 519.91 2137.65 519.91 2137.65C519.91 2137.65 519.91 2137.65 519.91 2137.65C519.91 2137.65 519.91 2137.65 519.91 2137.65C519.91 2137.65 519.91 2137.65 519.91 2137.65C519.91 2137.65 519.91 2137.65 519.91 2137.65C519.91 2137.65 519.91 2137.65 519.91 2137.65C519.91 2137.65 519.91 2137.65 519.91 2137.65C519.91 2137.65 519.91 2137.65 519.91 2137.65C519.91 2137.65 519.91 2137.65 519.91 2137.65V2137.65V2137.65C519.91 2137.65 519.91 2137.65 519.91 2137.65C519.91 2137.65 519.91 2137.65 519.91 2137.65V2137.65C519.91 2137.65 519.91 2137.65 519.91 2137.65V2137.65C519.91 2137.65 519.91 2137.65 519.91 2137.65C519.91 2137.65 519.91 2137.65 519.91 2137.65V2137.65H486.526V2137.65C486.526 2137.65 486.526 2137.65 486.526 2137.65C486.526 2137.65 486.526 2137.65 486.526 2137.65V2137.65C486.526 2137.65 486.526 2137.65 486.526 2137.65V2137.65C486.526 2137.65 486.526 2137.65 486.526 2137.65C486.526 2137.65 486.526 2137.65 486.526 2137.65V2137.65V2137.65C486.526 2137.65 486.526 2137.65 486.526 2137.65C486.526 2137.65 486.526 2137.65 486.526 2137.65C486.526 2137.65 486.526 2137.65 486.526 2137.65C486.526 2137.65 486.526 2137.65 486.526 2137.65C486.526 2137.65 486.526 2137.65 486.526 2137.65C486.526 2137.65 486.526 2137.65 486.526 2137.65C486.526 2137.65 486.526 2137.65 486.526 2137.65C486.526 2137.65 486.526 2137.65 486.526 2137.65C486.526 2137.65 486.526 2137.65 486.526 2137.65V2137.65V2137.65C486.526 2137.65 486.526 2137.65 486.526 2137.65C486.526 2137.65 486.526 2137.65 486.526 2137.65V2137.65C486.526 2137.65 486.526 2137.65 486.526 2137.65V2137.65C486.526 2137.65 486.526 2137.65 486.526 2137.65C486.526 2137.65 486.526 2137.65 486.526 2137.65V2137.65H519.91ZM519.91 2137.65C519.91 2137.71 519.916 2137.75 519.921 2137.78C519.926 2137.8 519.933 2137.82 519.941 2137.84C519.958 2137.88 519.981 2137.92 520.005 2137.94C520.028 2137.96 520.031 2137.96 519.998 2137.94C519.98 2137.94 519.957 2137.93 519.931 2137.92C519.905 2137.92 519.889 2137.92 519.889 2137.92V2171.3C501.194 2171.3 486.526 2155.96 486.526 2137.65H519.91ZM519.889 2137.92C519.89 2137.92 519.874 2137.92 519.847 2137.92C519.822 2137.93 519.799 2137.94 519.781 2137.94C519.747 2137.96 519.75 2137.96 519.774 2137.94C519.797 2137.92 519.821 2137.88 519.838 2137.84C519.845 2137.82 519.852 2137.8 519.858 2137.78C519.863 2137.75 519.869 2137.71 519.869 2137.65L553.253 2137.65C553.251 2155.97 538.583 2171.3 519.889 2171.3V2137.92ZM614.568 422.674L553.242 2138.25L519.879 2137.05L581.205 421.481L614.568 422.674ZM703.294 272.154C703.294 343.425 663.861 405.452 605.812 436.768L589.961 407.387C637.454 381.765 669.91 330.877 669.91 272.154H703.294ZM519.889 85.8715C621.449 85.8715 703.294 169.544 703.294 272.154H669.91C669.91 187.44 602.475 119.256 519.889 119.256V85.8715ZM336.485 272.154C336.485 169.544 418.33 85.8715 519.889 85.8715V119.256C437.304 119.256 369.869 187.44 369.869 272.154H336.485Z" fill="#246C17" mask="url(#path-13-inside-5_3_20)"/>
</g>
<mask id="mask4_3_20" style="mask-type:alpha" maskUnits="userSpaceOnUse" x="264" y="116" width="512" height="641">
<rect width="512" height="641" transform="matrix(-1 0 0 1 776 116)" fill="#C4C4C4"/>
</mask>
<g mask="url(#mask4_3_20)">
<mask id="path-16-inside-6_3_20" fill="white">
<path fill-rule="evenodd" clip-rule="evenodd" d="M353.177 287.406C353.177 351.3 389.121 406.8 441.892 434.785L503.218 2121.25C503.218 2130.45 510.682 2137.92 519.889 2137.92C529.097 2137.92 536.561 2130.45 536.561 2121.25L597.887 434.785C650.658 406.8 686.602 351.3 686.602 287.406C686.602 195.333 611.962 120.693 519.889 120.693C427.817 120.693 353.177 195.333 353.177 287.406Z"/>
</mask>
<path fill-rule="evenodd" clip-rule="evenodd" d="M353.177 287.406C353.177 351.3 389.121 406.8 441.892 434.785L503.218 2121.25C503.218 2130.45 510.682 2137.92 519.889 2137.92C529.097 2137.92 536.561 2130.45 536.561 2121.25L597.887 434.785C650.658 406.8 686.602 351.3 686.602 287.406C686.602 195.333 611.962 120.693 519.889 120.693C427.817 120.693 353.177 195.333 353.177 287.406Z" fill="#030713"/>
<path d="M441.892 434.785L449.713 420.039L458.223 424.552L458.573 434.179L441.892 434.785ZM503.218 2121.25L519.899 2120.64L519.91 2120.94V2121.25L503.218 2121.25ZM536.561 2121.25L519.869 2121.25V2120.94L519.88 2120.64L536.561 2121.25ZM597.887 434.785L581.205 434.179L581.555 424.552L590.066 420.039L597.887 434.785ZM434.072 449.532C376.059 418.767 336.485 357.721 336.485 287.406H369.869C369.869 344.88 402.183 394.833 449.713 420.039L434.072 449.532ZM486.537 2121.85L425.211 435.392L458.573 434.179L519.899 2120.64L486.537 2121.85ZM519.91 2121.25C519.91 2121.26 519.911 2121.26 519.911 2121.26C519.911 2121.27 519.911 2121.26 519.91 2121.26C519.909 2121.26 519.908 2121.25 519.907 2121.25C519.905 2121.24 519.903 2121.24 519.902 2121.23C519.898 2121.22 519.896 2121.22 519.897 2121.22C519.897 2121.22 519.9 2121.23 519.904 2121.23C519.908 2121.23 519.911 2121.24 519.912 2121.24C519.913 2121.24 519.91 2121.24 519.902 2121.23C519.899 2121.23 519.894 2121.23 519.889 2121.23C519.884 2121.23 519.88 2121.23 519.876 2121.22C519.872 2121.22 519.87 2121.22 519.871 2121.22C519.872 2121.22 519.878 2121.22 519.889 2121.22V2154.61C501.464 2154.61 486.526 2139.67 486.526 2121.25L519.91 2121.25ZM519.889 2121.22C519.901 2121.22 519.906 2121.22 519.907 2121.22C519.908 2121.22 519.907 2121.22 519.903 2121.22C519.899 2121.23 519.894 2121.23 519.889 2121.23C519.884 2121.23 519.88 2121.23 519.876 2121.23C519.869 2121.24 519.865 2121.24 519.866 2121.24C519.867 2121.24 519.871 2121.23 519.875 2121.23C519.879 2121.23 519.881 2121.22 519.882 2121.22C519.883 2121.22 519.88 2121.22 519.877 2121.23C519.876 2121.24 519.874 2121.24 519.872 2121.25C519.871 2121.25 519.87 2121.26 519.869 2121.26C519.868 2121.26 519.868 2121.26 519.868 2121.26C519.868 2121.26 519.869 2121.26 519.869 2121.25L553.253 2121.25C553.253 2139.67 538.315 2154.61 519.889 2154.61V2121.22ZM614.568 435.392L553.242 2121.85L519.88 2120.64L581.205 434.179L614.568 435.392ZM703.294 287.406C703.294 357.721 663.72 418.767 605.707 449.532L590.066 420.039C637.596 394.833 669.91 344.88 669.91 287.406H703.294ZM519.889 104.001C621.181 104.001 703.294 186.114 703.294 287.406H669.91C669.91 204.552 602.744 137.385 519.889 137.385V104.001ZM336.485 287.406C336.485 186.114 418.598 104.001 519.889 104.001V137.385C437.035 137.385 369.869 204.552 369.869 287.406H336.485Z" fill="#246C17" mask="url(#path-16-inside-6_3_20)"/>
</g>
<path d="M200.596 882.719L238.044 801.319L285.372 823.092C291.341 825.839 295.997 829.296 299.34 833.464C302.796 837.59 304.834 842.143 305.454 847.125C306.074 852.107 305.207 857.156 302.853 862.273C300.499 867.389 297.02 871.378 292.417 874.238C287.927 877.057 282.842 878.615 277.162 878.914C271.56 879.249 265.968 878.133 260.387 875.565L230.618 861.87L217.458 890.476L200.596 882.719ZM261.413 910.697L250.643 861.219L270.353 866.765L282.058 920.336L261.413 910.697ZM237.145 847.683L264.937 860.469C267.495 861.645 270.052 862.211 272.609 862.167C275.279 862.08 277.662 861.392 279.758 860.102C281.932 858.847 283.554 857.057 284.624 854.732C285.658 852.484 285.909 850.204 285.376 847.892C284.92 845.616 283.821 843.513 282.078 841.584C280.335 839.655 278.185 838.102 275.627 836.926L247.951 824.193L237.145 847.683Z" fill="#FAFAFA"/>
<path d="M301.193 931.216L323.627 844.47L399.591 864.116L395.361 880.474L337.489 865.507L323.516 919.538L382.255 934.729L378.025 951.086L301.193 931.216ZM320.497 897.471L324.599 881.609L384.701 897.152L380.599 913.014L320.497 897.471Z" fill="#FAFAFA"/>
<path d="M440.002 969.175C433.175 968.094 426.954 966.46 421.339 964.275C415.808 962.103 410.869 959.463 406.523 956.356C402.177 953.248 398.319 949.786 394.95 945.969L406.728 932.154C412.403 938.323 418.341 943.108 424.541 946.509C430.742 949.91 437.129 952.132 443.703 953.173C447.074 953.707 450.457 953.897 453.851 953.743C457.342 953.519 460.31 952.779 462.755 951.525C465.284 950.284 466.769 948.273 467.21 945.492C467.477 943.806 467.143 942.371 466.207 941.186C465.285 939.917 463.908 938.791 462.076 937.81C460.329 936.842 458.267 935.954 455.889 935.145C453.596 934.35 451.205 933.626 448.717 932.972C446.228 932.319 443.817 931.721 441.484 931.179C435.775 929.584 430.668 927.738 426.162 925.642C421.655 923.546 417.884 921.177 414.846 918.536C411.808 915.895 409.645 912.917 408.356 909.603C407.08 906.204 406.755 902.524 407.383 898.563C408.077 894.18 409.751 890.428 412.405 887.306C415.144 884.197 418.639 881.77 422.89 880.024C427.14 878.279 431.888 877.216 437.132 876.837C442.473 876.387 448.094 876.629 453.993 877.564C460.146 878.538 465.657 880.016 470.528 881.997C475.411 883.893 479.624 886.202 483.168 888.923C486.724 891.56 489.595 894.434 491.781 897.545L479.691 909.238C477.523 906.562 474.873 904.198 471.742 902.147C468.709 900.025 465.405 898.249 461.83 896.819C458.255 895.389 454.529 894.366 450.652 893.752C446.691 893.125 443.048 892.937 439.726 893.188C436.416 893.355 433.721 894.008 431.64 895.147C429.558 896.286 428.344 897.952 427.997 900.143C427.69 902.082 428.111 903.79 429.259 905.268C430.492 906.759 432.228 908.07 434.468 909.203C436.792 910.348 439.389 911.408 442.258 912.381C445.226 913.283 448.235 914.191 451.287 915.107C456.264 916.413 461.088 917.868 465.758 919.472C470.513 921.089 474.654 923.041 478.179 925.327C481.789 927.627 484.485 930.516 486.267 933.995C488.146 937.403 488.686 941.636 487.885 946.693C486.923 952.761 484.242 957.693 479.839 961.488C475.436 965.284 469.803 967.847 462.94 969.179C456.161 970.525 448.515 970.523 440.002 969.175Z" fill="#FAFAFA"/>
<path d="M546.409 990.838C539.038 989.405 532.33 987.014 526.288 983.667C520.261 980.235 515.209 976.037 511.132 971.071C507.056 966.106 504.18 960.549 502.507 954.399C500.917 948.266 500.782 941.807 502.101 935.022C503.387 928.404 505.942 922.642 509.764 917.734C513.603 912.743 518.343 908.709 523.983 905.633C529.639 902.473 535.862 900.423 542.651 899.482C549.525 898.558 556.605 898.804 563.893 900.221C569.505 901.312 574.778 903.032 579.711 905.382C584.66 907.648 589.067 910.243 592.932 913.168C596.881 916.108 600.035 919.112 602.394 922.179L588.658 935.156C586.468 932.557 583.994 930.077 581.237 927.715C578.48 925.354 575.272 923.296 571.614 921.542C568.056 919.72 563.89 918.345 559.116 917.417C555.179 916.652 551.161 916.523 547.064 917.031C543.05 917.554 539.224 918.68 535.585 920.406C532.03 922.149 528.947 924.593 526.336 927.736C523.826 930.813 522.147 934.529 521.301 938.884C520.405 943.491 520.579 947.741 521.822 951.634C523.148 955.543 525.259 958.996 528.153 961.992C531.048 964.989 534.476 967.481 538.436 969.468C542.396 971.455 546.596 972.88 551.036 973.742C555.894 974.687 560.33 974.897 564.344 974.373C568.374 973.766 572.034 972.826 575.324 971.553C578.614 970.28 581.553 969.025 584.14 967.79L590.155 984.476C587.351 985.93 583.635 987.381 579.007 988.829C574.463 990.293 569.356 991.299 563.685 991.849C558.115 992.331 552.356 991.994 546.409 990.838Z" fill="#FAFAFA"/>
<path d="M639.173 1023.89C630.47 1020.37 623.578 1015.56 618.497 1009.46C613.526 1003.31 610.452 996.456 609.274 988.893C608.175 981.363 609.192 973.721 612.325 965.967L629.874 922.53L647.795 929.771L630.437 972.733C628.487 977.559 627.869 982.279 628.582 986.893C629.295 991.506 631.118 995.648 634.053 999.319C636.988 1002.99 640.868 1005.8 645.694 1007.75C650.679 1009.76 655.541 1010.49 660.281 1009.92C665.021 1009.35 669.25 1007.65 672.968 1004.83C676.686 1002 679.519 998.177 681.469 993.351L698.827 950.389L716.154 957.39L698.605 1000.83C695.472 1008.58 690.855 1014.77 684.754 1019.39C678.733 1024.04 671.759 1026.84 663.832 1027.78C656.017 1028.67 647.797 1027.37 639.173 1023.89Z" fill="#FAFAFA"/>
<path d="M691.578 1044.31L736.378 966.719L804.33 1005.95L795.882 1020.58L744.114 990.695L716.21 1039.03L768.753 1069.36L760.305 1083.99L691.578 1044.31ZM719.198 1016.96L727.39 1002.77L781.153 1033.81L772.961 1048L719.198 1016.96Z" fill="#FAFAFA"/>
<path d="M358.135 1473.47L331.939 1387.78L348.708 1382.66L402.539 1419.07L393.113 1421.95L417.379 1361.66L434.148 1356.53L460.345 1442.22L442.351 1447.72L432.995 1417.12C430.925 1410.34 429.142 1403.93 427.647 1397.87C426.152 1391.82 424.946 1385.54 424.029 1379.04L427.774 1384.72L406.604 1434.56L398.526 1437.03L352.664 1407.41L352.911 1400.78C355.786 1406.68 358.298 1412.56 360.445 1418.42C362.593 1424.28 364.702 1430.59 366.773 1437.36L376.129 1467.97L358.135 1473.47Z" fill="#FAFAFA"/>
<path d="M597.604 1408.34L571.408 1322.66L646.443 1299.72L651.383 1315.87L594.219 1333.35L610.536 1386.72L668.557 1368.98L673.497 1385.14L597.604 1408.34ZM596.432 1369.48L591.642 1353.81L651.009 1335.66L655.799 1351.33L596.432 1369.48Z" fill="#FAFAFA"/>
<path d="M688.489 1345.58C685.918 1341.55 683.234 1337.15 680.438 1332.38C677.699 1327.51 675.114 1322.41 672.683 1317.08C670.333 1311.73 668.36 1306.45 666.764 1301.22L663.919 1291.92L689.503 1284.1L692.347 1293.4C693.919 1298.54 695.185 1304 696.148 1309.77C697.166 1315.44 697.903 1321.06 698.357 1326.63C698.893 1332.18 699.153 1337.41 699.138 1342.32L688.489 1345.58ZM703.68 1376C698.865 1377.47 694.988 1377.63 692.047 1376.48C689.188 1375.3 687.273 1373.12 686.3 1369.94C685.501 1367.33 685.961 1364.6 687.679 1361.75C689.397 1358.91 692.622 1356.76 697.355 1355.31C702.088 1353.87 705.884 1353.73 708.743 1354.91C711.683 1356.07 713.627 1358.19 714.576 1361.29C715.399 1363.99 714.952 1366.76 713.234 1369.6C711.597 1372.42 708.413 1374.55 703.68 1376Z" fill="#FAFAFA"/>
</g>
<defs>
<filter id="filter0_d_3_20" x="-0.000305176" y="-96" width="1040" height="2357.25" filterUnits="userSpaceOnUse" color-interpolation-filters="sRGB">
<feFlood flood-opacity="0" result="BackgroundImageFix"/>
<feColorMatrix in="SourceAlpha" type="matrix" values="0 0 0 0 0 0 0 0 0 0 0 0 0 0 0 0 0 0 127 0" result="hardAlpha"/>
<feOffset/>
<feGaussianBlur stdDeviation="60"/>
<feComposite in2="hardAlpha" operator="out"/>
<feColorMatrix type="matrix" values="0 0 0 0 0.980392 0 0 0 0 0.980392 0 0 0 0 0.980392 0 0 0 1 0"/>
<feBlend mode="normal" in2="BackgroundImageFix" result="effect1_dropShadow_3_20"/>
<feBlend mode="normal" in="SourceGraphic" in2="effect1_dropShadow_3_20" result="shape"/>
</filter>
</defs>
</svg>
